<svg width="119" height="119" viewBox="0 0 119 119" fill="none" xmlns="http://www.w3.org/2000/svg">
<path d="M68.8039 16.1875C68.8039 12.765 66.0336 10 62.6046 10C59.1756 10 56.4052 12.765 56.4052 16.1875V56.4062C56.4052 58.1078 55.0104 59.5 53.3056 59.5C51.6007 59.5 50.2059 58.1078 50.2059 56.4062V22.375C50.2059 18.9525 47.4356 16.1875 44.0065 16.1875C40.5775 16.1875 37.8072 18.9525 37.8072 22.375V74.9688C37.8072 75.2588 37.8072 75.5682 37.8266 75.8582L26.1059 64.7207C23.0063 61.7816 18.1049 61.8977 15.1408 64.9914C12.1768 68.0852 12.3124 72.9771 15.4121 75.9355L37.1873 96.625C45.537 104.572 56.6377 109 68.184 109H71.9036C90.7341 109 106 93.7633 106 74.9688V34.75C106 31.3275 103.23 28.5625 99.8007 28.5625C96.3716 28.5625 93.6013 31.3275 93.6013 34.75V56.4062C93.6013 58.1078 92.2065 59.5 90.5016 59.5C88.7968 59.5 87.402 58.1078 87.402 56.4062V22.375C87.402 18.9525 84.6316 16.1875 81.2026 16.1875C77.7736 16.1875 75.0033 18.9525 75.0033 22.375V56.4062C75.0033 58.1078 73.6084 59.5 71.9036 59.5C70.1988 59.5 68.8039 58.1078 68.8039 56.4062V16.1875Z" fill="white"/>
</svg>
