<svg width="119" height="119" viewBox="0 0 119 119" fill="none" xmlns="http://www.w3.org/2000/svg">
<path d="M42.56 10C37.4587 10 33.32 14.1572 33.32 19.2812V28.5625V34.0732V44.0312C33.32 45.7328 31.934 47.125 30.24 47.125C28.546 47.125 27.16 45.7328 27.16 44.0312V38.8686L25.4275 40.3188C22.617 42.6777 21 46.1582 21 49.832V57.1797C21 64.5273 24.2532 71.4883 29.8742 76.1869L39.48 84.25V102.812C39.48 106.235 42.2327 109 45.64 109H76.44C79.8472 109 82.6 106.235 82.6 102.812V82.4518C91.6282 78.7779 98 69.8834 98 59.5V44.0312V40.9375V37.8438C98 32.7197 93.8612 28.5625 88.76 28.5625C86.373 28.5625 84.217 29.4713 82.5807 30.9408C82.215 26.1455 78.2302 22.375 73.36 22.375C70.973 22.375 68.817 23.2838 67.1807 24.7533C66.815 19.958 62.8302 16.1875 57.96 16.1875C55.573 16.1875 53.417 17.0963 51.7807 18.5658C51.415 13.7705 47.4302 10 42.56 10Z" fill="white"/>
</svg>
