<svg width="119" height="119" viewBox="0 0 119 119" fill="none" xmlns="http://www.w3.org/2000/svg">
<path d="M17.7344 50.13C13.4611 50.13 10 53.6257 10 57.9417C10 62.2576 13.4611 65.7534 17.7344 65.7534H52.5777C51.1082 67.4133 50.2188 69.6006 50.2188 72.0027C50.2188 76.9436 53.9893 80.9861 58.7846 81.3571C57.2957 83.0171 56.4062 85.2239 56.4062 87.626C56.4062 92.8012 60.5635 97 65.6875 97H71.875H84.25C97.9205 97 109 85.8098 109 72.0027V49.9152C109 42.0645 105.906 34.5262 100.415 28.9604C96.0063 24.5078 90.0314 22.008 83.8053 22.008H74.9688C70.8502 22.008 67.3697 24.7226 66.1516 28.4722L80.5568 33.1006C82.1811 33.6279 83.0898 35.3855 82.5678 37.026C82.0457 38.6664 80.3055 39.5843 78.6813 39.057L65.6875 34.8778V34.8973L26.2422 22.3596C22.1623 21.0706 17.8311 23.3556 16.5355 27.4762C15.24 31.5969 17.5217 35.9714 21.6016 37.2798L62.1104 50.13H17.7344Z" fill="white"/>
</svg>
